<?xml version="1.0" standalone="no"?>
<!DOCTYPE svg PUBLIC "-//W3C//DTD SVG 20010904//EN"
 "http://www.w3.org/TR/2001/REC-SVG-20010904/DTD/svg10.dtd">
<svg version="1.0" xmlns="http://www.w3.org/2000/svg"
 width="374.000000pt" height="288.000000pt" viewBox="0 0 374.000000 288.000000"
 preserveAspectRatio="xMidYMid meet">
<g transform="translate(0.000000,288.000000) scale(0.100000,-0.100000)"
fill="#000000" stroke="none">
<path d="M1305 2420 c-16 -4 -47 -8 -67 -9 -21 0 -38 -5 -38 -9 0 -8 -12 -10
-77 -14 -23 -1 -39 -6 -36 -11 3 -5 14 -6 26 -3 13 3 17 2 10 -5 -6 -6 -27
-11 -47 -12 -25 -1 -35 -6 -31 -15 3 -7 1 -11 -4 -8 -5 3 -14 -1 -21 -9 -7 -8
-21 -15 -31 -15 -10 0 -21 -5 -24 -10 -4 -6 -11 -7 -17 -4 -6 4 -5 10 3 15 10
6 10 9 2 9 -6 0 -15 -5 -19 -11 -8 -14 16 -30 31 -21 6 4 0 -3 -14 -15 -13
-11 -30 -19 -38 -16 -9 3 -11 0 -7 -10 3 -8 0 -18 -7 -23 -7 -4 -10 -3 -6 3 3
5 0 10 -7 10 -8 0 -12 -7 -9 -15 5 -11 1 -13 -18 -7 -18 5 -20 4 -9 -4 12 -8
12 -13 -5 -31 -11 -12 -25 -18 -34 -15 -13 5 -13 4 -4 -6 10 -10 7 -17 -13
-34 -14 -12 -26 -28 -28 -36 -3 -19 -35 -76 -36 -64 0 6 7 22 16 35 l16 25
-22 -24 c-11 -13 -19 -30 -16 -37 3 -8 -1 -26 -9 -41 -8 -15 -15 -36 -15 -45
0 -10 -6 -18 -12 -18 -9 0 -13 -16 -13 -47 -1 -27 -6 -48 -13 -51 -7 -2 -12
-10 -12 -18 0 -9 5 -12 10 -9 16 10 12 -11 -5 -25 -8 -7 -15 -18 -15 -24 0 -6
4 -6 9 2 5 8 8 -17 7 -62 0 -42 1 -76 4 -76 3 0 6 -15 7 -33 2 -24 0 -28 -8
-17 -7 11 -8 7 -3 -15 4 -24 3 -27 -6 -15 -10 13 -11 12 -6 -3 3 -10 6 -26 7
-35 0 -9 6 -1 12 18 l10 35 7 -42 c6 -37 37 -121 50 -133 6 -6 11 -25 15 -58
2 -18 0 -20 -11 -11 -10 8 -14 8 -14 0 0 -6 3 -11 8 -12 4 0 15 -2 25 -4 9 -2
15 1 11 6 -3 5 -3 9 0 9 3 0 13 -14 22 -31 17 -34 127 -147 168 -174 14 -10
23 -21 20 -26 -3 -5 3 -6 12 -2 12 4 15 3 10 -5 -5 -8 -1 -10 10 -5 12 4 15 3
10 -6 -4 -6 -4 -11 1 -10 9 2 29 -5 90 -32 24 -10 51 -19 62 -19 11 0 21 -5
23 -10 2 -6 23 -12 48 -14 25 -2 61 -7 80 -10 19 -4 76 -2 125 5 50 6 107 14
129 16 28 4 35 8 25 15 -9 6 -1 7 26 3 24 -3 35 -2 27 3 -9 6 0 12 28 21 22 6
40 16 40 21 0 5 7 6 17 3 10 -4 14 -2 10 4 -10 17 36 33 59 20 17 -9 18 -9 5
6 -16 20 -1 23 18 5 11 -11 11 -9 1 11 -6 13 -8 21 -2 17 5 -3 15 1 22 9 7 8
18 15 24 15 7 0 21 7 32 16 10 8 12 13 4 9 -8 -4 -6 0 5 9 11 8 25 20 32 26 7
5 16 10 22 10 5 0 11 6 14 13 2 6 25 27 51 45 44 32 52 31 46 -7 -2 -13 0 -13
16 0 10 8 15 9 10 2 -4 -7 -24 -20 -44 -29 -47 -22 -92 -63 -92 -83 1 -17 49
-112 50 -98 0 5 7 1 16 -7 8 -9 24 -16 34 -16 13 0 18 -6 15 -18 -3 -15 3 -18
38 -16 37 2 40 1 23 -11 -18 -13 -17 -14 3 -12 11 1 21 5 21 10 0 4 4 5 10 2
31 -19 238 -22 304 -4 22 6 53 8 70 5 22 -4 27 -3 16 4 -12 8 -10 10 10 10 17
0 21 3 12 9 -10 6 -1 14 30 27 24 10 49 18 55 17 7 0 10 3 7 8 -8 13 10 11 26
-3 12 -11 12 -10 2 4 -11 14 -9 19 10 32 25 18 42 21 33 6 -3 -5 -1 -10 5 -10
7 0 9 8 5 19 -3 10 1 24 10 31 8 7 15 9 15 4 0 -5 13 6 29 24 17 17 34 32 39
32 6 0 15 14 21 30 5 17 17 33 26 36 8 3 15 12 15 19 0 8 5 17 12 21 6 4 8 3
4 -4 -3 -6 -2 -13 3 -17 6 -3 8 6 5 21 -3 18 -1 23 7 18 9 -5 10 -2 6 9 -3 8
0 21 8 27 7 6 13 19 13 28 -1 9 5 33 14 52 24 52 31 73 35 95 9 49 11 305 3
310 -5 3 -6 13 -3 21 3 9 2 19 -3 23 -16 11 -43 91 -37 108 4 11 2 14 -5 9 -7
-4 -12 -1 -12 8 0 9 -5 16 -11 16 -6 0 -8 9 -4 23 5 17 4 19 -4 7 -9 -12 -11
-9 -11 14 0 16 -3 26 -7 23 -9 -9 -36 31 -28 43 3 5 -4 14 -15 20 -11 6 -20 7
-20 3 0 -4 -12 9 -27 30 -14 20 -30 37 -35 37 -5 0 -6 5 -3 10 3 6 1 10 -5 10
-6 0 -8 5 -4 11 4 7 0 9 -14 5 -14 -5 -26 0 -40 19 -11 14 -28 25 -38 25 -16
0 -17 2 -4 10 13 9 13 10 0 10 -8 0 -36 11 -62 25 -26 14 -56 25 -68 25 -11 0
-20 5 -20 11 0 5 6 7 13 3 6 -4 9 -4 5 1 -5 5 -23 9 -40 11 -18 1 -64 8 -103
14 -61 11 -123 10 -282 -2 -7 -1 -10 -6 -6 -11 3 -5 -8 -6 -28 -2 -20 4 -29 3
-21 -2 8 -6 -5 -14 -40 -22 -28 -8 -66 -22 -84 -33 -18 -11 -47 -21 -65 -23
-34 -5 -53 -15 -26 -15 9 0 19 -5 23 -11 4 -8 -1 -9 -17 -4 -18 5 -20 4 -9 -4
12 -8 11 -11 -5 -17 -11 -4 -38 -22 -60 -39 -22 -18 -46 -30 -53 -28 -7 3 -10
-1 -6 -10 3 -10 -2 -18 -15 -22 -11 -3 -30 -18 -42 -33 -13 -16 -20 -20 -16
-9 4 11 3 16 -3 12 -6 -3 -10 -12 -10 -18 0 -7 -10 -23 -23 -37 -12 -14 -18
-21 -14 -14 4 7 4 15 -1 18 -8 5 -23 -14 -26 -34 -1 -3 -13 -21 -27 -39 -17
-21 -29 -29 -33 -22 -4 6 -2 11 4 11 6 0 8 5 4 11 -11 18 -21 -8 -18 -48 1
-19 0 -32 -3 -29 -3 3 -13 -2 -22 -11 -11 -12 -12 -18 -4 -20 14 -5 -4 -49
-32 -77 -9 -9 -13 -21 -9 -27 4 -7 6 -45 5 -86 -2 -59 1 -74 14 -79 14 -6 14
-8 -2 -19 -16 -12 -13 -13 19 -10 21 2 42 6 47 9 5 3 12 0 14 -6 3 -8 6 -7 6
4 1 9 9 21 18 26 13 8 16 21 14 57 -1 26 2 52 6 58 5 7 15 30 22 52 15 41 39
67 55 58 5 -4 6 -1 2 6 -8 13 30 50 52 51 7 0 10 5 6 11 -5 9 1 10 20 5 17 -4
25 -3 22 3 -3 5 4 7 16 4 19 -4 20 -3 8 7 -12 9 -10 10 13 5 16 -3 26 -2 24 2
-11 18 77 0 97 -20 20 -19 20 -20 1 -13 -20 6 -20 6 -1 -9 25 -19 45 -19 53 1
3 8 12 13 19 10 8 -3 11 0 8 8 -3 7 5 25 17 40 20 25 22 26 36 9 13 -17 14
-17 8 4 -8 30 35 60 62 43 16 -10 16 -10 -3 -5 -11 3 -28 -1 -37 -8 -16 -11
-13 -12 21 -12 36 0 39 2 36 22 -3 13 -1 22 3 21 5 0 22 4 38 11 51 21 140 32
170 21 15 -6 31 -8 36 -4 5 3 9 0 9 -5 0 -6 8 -11 18 -11 10 0 28 -7 40 -16
20 -13 21 -18 10 -32 -12 -15 -11 -16 5 -3 14 11 15 16 5 29 -10 12 -6 11 14
-2 15 -10 25 -22 22 -27 -3 -5 1 -6 9 -3 8 3 18 0 22 -5 3 -6 10 -9 14 -6 5 2
21 -10 36 -27 22 -24 24 -30 9 -24 -14 5 -11 0 9 -19 15 -14 27 -33 27 -41 0
-8 5 -12 10 -9 6 3 11 -1 11 -9 2 -24 4 -30 12 -43 36 -56 25 -269 -15 -308
-6 -6 -6 -1 1 12 6 12 11 30 10 40 -1 19 -18 -27 -23 -62 -1 -12 -10 -32 -19
-46 -10 -14 -15 -28 -12 -31 12 -11 -35 -1 -52 12 -17 14 -17 14 -2 -5 28 -35
35 -52 12 -32 -20 17 -20 17 -16 -5 3 -18 -2 -26 -26 -36 -16 -7 -36 -12 -43
-10 -7 2 -13 -2 -13 -7 0 -5 7 -9 15 -7 12 2 12 1 1 -6 -7 -5 -22 -7 -34 -4
-13 3 -18 1 -13 -6 6 -10 -23 -25 -40 -20 -5 1 -24 -2 -42 -6 -18 -4 -60 -5
-93 -1 -50 6 -58 9 -48 21 15 19 -1 37 -24 28 -18 -7 -23 -24 -7 -24 6 0 10 5
10 10 0 6 5 10 10 10 16 0 12 -17 -6 -24 -18 -7 -47 11 -39 24 3 4 -2 11 -10
14 -13 5 -14 2 -4 -15 6 -11 8 -23 5 -27 -3 -3 -6 -2 -6 3 0 4 -9 -4 -21 -19
-23 -29 -44 -34 -53 -11 -3 10 7 30 27 51 17 20 46 58 63 85 16 27 33 47 36
44 3 -3 8 1 12 10 3 9 2 13 -4 10 -13 -8 -13 11 2 38 6 12 12 37 14 57 1 19 6
65 9 103 5 48 4 67 -5 67 -6 0 -9 4 -6 9 14 23 -60 28 -90 6 -12 -8 -24 -11
-28 -8 -3 3 -6 1 -6 -5 0 -6 5 -14 10 -17 6 -4 7 -12 3 -18 -4 -7 -6 -22 -5
-33 2 -12 -4 -24 -12 -27 -10 -4 -16 -19 -16 -37 0 -32 -24 -100 -36 -100 -3
0 -3 7 0 16 3 9 2 12 -5 9 -6 -4 -8 -14 -4 -22 6 -17 -23 -56 -35 -48 -4 3
-13 -2 -20 -10 -7 -8 -19 -15 -27 -15 -8 0 -11 -5 -7 -11 4 -7 -1 -7 -16 1
-12 7 -20 8 -16 2 3 -5 -6 -13 -22 -16 -15 -4 -36 -9 -47 -12 -16 -4 -17 -3
-5 5 8 6 10 11 4 11 -5 0 -14 -4 -20 -10 -6 -6 -22 -6 -44 1 -19 6 -56 12 -82
13 -37 1 -44 -1 -36 -11 15 -19 -7 -17 -26 2 -26 26 -31 16 -5 -12 19 -20 20
-25 6 -20 -11 4 -20 1 -23 -8 -3 -8 -15 -17 -26 -21 -16 -5 -18 -8 -7 -15 21
-13 -7 -12 -34 2 -18 9 -20 9 -10 -1 10 -11 7 -16 -15 -27 -71 -38 -260 -36
-298 2 -9 9 -23 14 -31 11 -8 -3 -12 -2 -9 3 3 4 -12 16 -34 26 -37 17 -45 26
-41 49 1 5 -5 4 -13 -3 -13 -11 -15 -10 -11 8 3 14 0 18 -11 14 -8 -3 -14 -2
-12 3 4 14 -28 55 -36 47 -4 -4 -5 5 -2 20 3 18 1 25 -6 21 -6 -4 -8 1 -3 15
5 15 1 29 -12 43 -10 11 -17 22 -15 24 1 2 2 21 2 42 0 29 -3 34 -11 22 -9
-12 -10 -12 -5 3 3 10 6 35 7 55 1 33 2 34 8 12 6 -17 8 -5 8 39 0 41 4 66 11
69 7 2 12 12 12 22 0 10 12 29 28 41 17 14 20 20 8 15 -16 -5 -17 -4 -6 9 7 9
15 13 18 10 3 -3 12 1 20 8 13 10 14 8 8 -13 -6 -21 -5 -22 4 -8 8 13 8 23 0
38 -6 11 -7 19 -3 18 8 -3 59 28 81 49 16 16 32 17 32 2 0 -5 5 -7 10 -4 6 4
8 10 5 15 -3 5 -1 11 5 15 5 3 10 1 10 -4 0 -6 15 -2 33 8 17 10 38 16 46 13
9 -3 11 0 6 8 -5 9 -4 11 4 6 6 -4 38 -9 70 -11 33 -2 73 -11 89 -19 27 -14
31 -14 43 0 7 8 18 13 25 10 9 -3 11 1 7 12 -6 15 -5 16 12 2 11 -9 16 -10 11
-3 -4 7 -2 21 4 30 11 17 11 17 6 0 -3 -11 -2 -15 4 -12 6 3 10 12 10 20 0 16
38 45 58 45 7 0 10 -4 7 -10 -4 -6 1 -7 11 -3 15 5 15 7 0 15 -15 8 -15 11 -1
24 8 8 19 13 25 9 5 -3 7 0 4 8 -3 8 0 18 5 22 6 3 9 11 5 16 -3 5 0 16 6 24
10 12 10 18 0 30 -7 8 -16 13 -20 10 -4 -2 -18 7 -31 21 -31 33 -76 57 -91 48
-7 -5 -8 -3 -3 6 6 10 3 12 -13 8 -12 -4 -20 -3 -17 2 9 15 -213 32 -260 20z
m197 -35 c97 -17 157 -47 193 -95 14 -19 25 -37 25 -40 0 -3 -28 -27 -62 -52
-35 -26 -78 -62 -97 -82 -26 -27 -38 -33 -51 -26 -9 5 -45 14 -81 20 -55 9
-75 8 -140 -9 -139 -36 -242 -123 -296 -251 -24 -56 -28 -78 -28 -165 1 -91 3
-106 32 -167 52 -111 152 -200 266 -237 49 -17 180 -15 238 3 65 20 100 39
163 90 l54 44 43 -15 c104 -36 237 7 311 101 53 67 70 110 72 183 l1 63 38 0
37 0 0 -54 c0 -205 -77 -328 -323 -512 -120 -90 -239 -154 -337 -180 -97 -27
-274 -25 -362 3 -206 67 -345 181 -433 353 -61 120 -80 201 -79 335 0 126 18
200 71 310 42 85 70 124 141 192 101 100 221 162 357 188 94 18 147 18 247 0z
m1037 -29 c227 -80 408 -283 456 -512 19 -91 19 -254 0 -329 -57 -220 -215
-400 -425 -484 -168 -66 -306 -65 -479 4 -31 13 -51 31 -72 63 l-28 45 44 29
c24 16 68 51 96 78 42 40 56 47 70 39 37 -19 116 -28 179 -19 85 12 164 53
230 119 162 163 167 419 11 584 -80 85 -195 137 -301 137 -97 0 -223 -48 -292
-113 l-37 -34 -57 14 c-65 17 -149 6 -215 -27 -88 -45 -159 -165 -159 -266 l0
-44 -41 0 -41 0 6 58 c23 199 79 296 258 443 172 142 264 195 392 229 108 29
304 22 405 -14z m-799 -67 c0 -6 -4 -7 -10 -4 -5 3 -10 11 -10 16 0 6 5 7 10
4 6 -3 10 -11 10 -16z m184 9 c-3 -4 -11 -5 -19 -1 -21 7 -19 12 4 10 11 0 18
-5 15 -9z m66 -358 c0 -8 -22 -30 -30 -30 -3 0 -6 8 -7 18 -1 11 5 18 18 18
10 0 19 -3 19 -6z m117 -327 c-3 -10 -5 -4 -5 12 0 17 2 24 5 18 2 -7 2 -21 0
-30z m-577 13 c0 -3 -4 -8 -10 -11 -5 -3 -10 -1 -10 4 0 6 5 11 10 11 6 0 10
-2 10 -4z m-510 -72 c0 -20 -7 -17 -20 6 -9 16 -8 18 5 14 8 -4 15 -12 15 -20z"/>
<path d="M1020 2270 c-9 -6 -10 -10 -3 -10 6 0 15 5 18 10 8 12 4 12 -15 0z"/>
<path d="M1058 2263 c7 -3 16 -2 19 1 4 3 -2 6 -13 5 -11 0 -14 -3 -6 -6z"/>
<path d="M1613 2233 c4 -3 1 -13 -6 -22 -11 -14 -10 -14 5 -2 16 12 16 31 1
31 -4 0 -3 -3 0 -7z"/>
<path d="M1509 2151 c11 -7 11 -9 0 -14 -8 -3 -4 -4 8 -4 17 1 19 4 11 14 -6
7 -16 13 -22 13 -6 0 -5 -4 3 -9z"/>
<path d="M1119 2063 c-13 -16 -12 -17 4 -4 9 7 17 15 17 17 0 8 -8 3 -21 -13z"/>
<path d="M990 1979 c0 -5 5 -7 10 -4 6 3 10 8 10 11 0 2 -4 4 -10 4 -5 0 -10
-5 -10 -11z"/>
<path d="M981 1944 c0 -11 3 -14 6 -6 3 7 2 16 -1 19 -3 4 -6 -2 -5 -13z"/>
<path d="M901 1694 c0 -11 3 -14 6 -6 3 7 2 16 -1 19 -3 4 -6 -2 -5 -13z"/>
<path d="M974 1469 c-3 -6 -2 -15 4 -21 6 -6 12 -6 17 3 6 8 4 10 -5 4 -10 -6
-12 -4 -7 8 7 19 2 23 -9 6z"/>
<path d="M756 1438 c3 -5 10 -6 15 -3 13 9 11 12 -6 12 -8 0 -12 -4 -9 -9z"/>
<path d="M860 1350 c0 -5 5 -10 11 -10 5 0 7 5 4 10 -3 6 -8 10 -11 10 -2 0
-4 -4 -4 -10z"/>
<path d="M840 1330 c0 -5 5 -10 11 -10 5 0 7 5 4 10 -3 6 -8 10 -11 10 -2 0
-4 -4 -4 -10z"/>
<path d="M825 1300 c3 -5 8 -10 11 -10 2 0 4 5 4 10 0 6 -5 10 -11 10 -5 0 -7
-4 -4 -10z"/>
<path d="M1350 1220 c8 -5 20 -10 25 -10 6 0 3 5 -5 10 -8 5 -19 10 -25 10 -5
0 -3 -5 5 -10z"/>
<path d="M1765 1180 c-3 -6 1 -7 9 -4 18 7 21 14 7 14 -6 0 -13 -4 -16 -10z"/>
<path d="M1779 1159 c-23 -19 -23 -20 -2 -10 12 6 25 16 28 21 10 16 -1 12
-26 -11z"/>
<path d="M1679 1083 c-13 -16 -12 -17 4 -4 16 13 21 21 13 21 -2 0 -10 -8 -17
-17z"/>
<path d="M2560 2261 c0 -10 19 -25 25 -20 1 2 -3 10 -11 17 -8 7 -14 8 -14 3z"/>
<path d="M2600 2260 c0 -5 5 -10 11 -10 5 0 7 5 4 10 -3 6 -8 10 -11 10 -2 0
-4 -4 -4 -10z"/>
<path d="M2757 2169 c7 -7 15 -10 18 -7 3 3 -2 9 -12 12 -14 6 -15 5 -6 -5z"/>
<path d="M2198 2133 c7 -3 16 -2 19 1 4 3 -2 6 -13 5 -11 0 -14 -3 -6 -6z"/>
<path d="M2805 2089 c-3 -4 2 -6 10 -5 21 3 28 13 10 13 -9 0 -18 -4 -20 -8z"/>
<path d="M2009 2078 c-8 -27 -5 -36 9 -30 10 4 12 7 4 10 -7 2 -10 8 -6 13 3
5 3 9 0 9 -3 0 -6 -1 -7 -2z"/>
<path d="M1685 1991 c-3 -5 -2 -12 3 -15 5 -3 9 1 9 9 0 17 -3 19 -12 6z"/>
<path d="M2706 1987 c3 -10 9 -15 12 -12 3 3 0 11 -7 18 -10 9 -11 8 -5 -6z"/>
<path d="M2230 1230 c-8 -5 -10 -10 -5 -10 6 0 17 5 25 10 8 5 11 10 5 10 -5
0 -17 -5 -25 -10z"/>
<path d="M2150 1220 c0 -6 7 -10 15 -10 8 0 15 2 15 4 0 2 -7 6 -15 10 -8 3
-15 1 -15 -4z"/>
<path d="M2408 1223 c7 -3 16 -2 19 1 4 3 -2 6 -13 5 -11 0 -14 -3 -6 -6z"/>
<path d="M2723 1179 c-2 -23 3 -25 10 -4 4 8 3 16 -1 19 -4 3 -9 -4 -9 -15z"/>
<path d="M2050 1140 c-8 -5 -10 -10 -5 -10 6 0 17 5 25 10 8 5 11 10 5 10 -5
0 -17 -5 -25 -10z"/>
<path d="M2633 1095 c0 -8 4 -12 9 -9 5 3 6 10 3 15 -9 13 -12 11 -12 -6z"/>
<path d="M2027 2388 c2 -5 10 -8 18 -8 8 0 16 3 18 8 3 4 -5 7 -18 7 -13 0
-21 -3 -18 -7z"/>
<path d="M2752 2303 c-7 -11 -6 -21 3 -30 20 -20 27 -16 13 7 -11 17 -10 22 2
30 9 6 10 10 3 10 -7 0 -16 -8 -21 -17z"/>
<path d="M2782 2301 c-10 -6 -10 -10 2 -20 12 -10 15 -9 13 8 -1 12 -1 21 -2
21 0 0 -6 -4 -13 -9z"/>
<path d="M890 2290 c0 -5 5 -10 10 -10 6 0 10 5 10 10 0 6 -4 10 -10 10 -5 0
-10 -4 -10 -10z"/>
<path d="M1740 2259 c0 -5 5 -7 10 -4 6 3 10 8 10 11 0 2 -4 4 -10 4 -5 0 -10
-5 -10 -11z"/>
<path d="M1745 2229 c-4 -6 -5 -12 -2 -15 2 -3 7 2 10 11 7 17 1 20 -8 4z"/>
<path d="M1773 2223 c0 -10 4 -10 16 -1 9 7 18 13 20 15 2 1 -5 1 -16 0 -11 0
-20 -7 -20 -14z"/>
<path d="M2840 2213 c0 -5 9 -18 20 -28 11 -10 20 -16 20 -13 0 3 -9 15 -20
28 -11 13 -20 19 -20 13z"/>
<path d="M1705 2180 c3 -5 11 -10 16 -10 6 0 7 5 4 10 -3 6 -11 10 -16 10 -6
0 -7 -4 -4 -10z"/>
<path d="M1630 2108 c0 -19 2 -20 10 -8 13 19 13 30 0 30 -5 0 -10 -10 -10
-22z"/>
<path d="M1195 2019 c-4 -6 -5 -12 -2 -15 2 -3 7 2 10 11 7 17 1 20 -8 4z"/>
<path d="M2569 1984 c-7 -45 -4 -60 13 -60 15 0 16 2 3 16 -20 22 -19 36 0 20
8 -7 15 -8 15 -2 0 12 -30 37 -31 26z"/>
<path d="M2040 1972 c0 -5 7 -15 15 -22 8 -7 15 -8 15 -2 0 5 -7 15 -15 22 -8
7 -15 8 -15 2z"/>
<path d="M3001 1964 c0 -11 3 -14 6 -6 3 7 2 16 -1 19 -3 4 -6 -2 -5 -13z"/>
<path d="M1878 1943 c7 -3 16 -2 19 1 4 3 -2 6 -13 5 -11 0 -14 -3 -6 -6z"/>
<path d="M2025 1940 c3 -5 8 -10 11 -10 2 0 4 5 4 10 0 6 -5 10 -11 10 -5 0
-7 -4 -4 -10z"/>
<path d="M3021 1934 c0 -11 3 -14 6 -6 3 7 2 16 -1 19 -3 4 -6 -2 -5 -13z"/>
<path d="M651 1915 c1 -19 18 -51 18 -35 0 8 -4 22 -9 30 -5 8 -9 11 -9 5z"/>
<path d="M1471 1903 c-1 -12 4 -25 9 -28 12 -7 12 2 0 30 -8 19 -9 19 -9 -2z"/>
<path d="M1804 1901 c-2 -2 -12 -5 -22 -6 -10 0 -29 -11 -42 -23 -21 -19 -39
-26 -61 -24 -3 1 -6 -5 -6 -12 0 -28 -26 -76 -42 -76 -13 0 -13 -2 -2 -9 10
-7 12 -22 8 -59 -7 -57 0 -95 16 -85 6 3 7 1 3 -5 -3 -6 5 -22 18 -35 13 -14
21 -28 18 -33 -4 -5 -5 -8 -3 -7 2 2 18 -6 36 -17 18 -11 35 -17 38 -13 4 3 7
-1 7 -9 0 -9 10 -18 23 -22 33 -9 44 -7 27 5 -12 8 -9 9 12 5 37 -8 111 11
137 35 12 11 21 17 21 13 0 -14 43 42 52 69 6 15 13 27 18 27 12 0 1 121 -12
138 -11 13 -11 14 0 8 10 -6 13 -3 10 10 -2 11 -9 18 -16 17 -7 -2 -9 4 -5 14
4 11 3 14 -5 9 -7 -4 -12 -1 -12 9 0 9 -4 13 -10 10 -5 -3 -10 -2 -10 3 0 5
-12 14 -26 21 -15 6 -24 15 -20 18 3 4 12 1 18 -5 7 -7 17 -12 22 -12 16 0
-26 26 -52 33 -15 3 -20 1 -15 -6 4 -7 -1 -5 -11 3 -17 13 -101 21 -112 11z
m151 -59 c56 -38 88 -103 81 -164 -14 -126 -109 -196 -230 -169 -121 27 -180
160 -121 270 24 43 65 74 125 95 32 11 106 -5 145 -32z"/>
<path d="M1927 1769 c7 -7 15 -10 18 -7 3 3 -2 9 -12 12 -14 6 -15 5 -6 -5z"/>
<path d="M1940 1560 c-9 -6 -10 -10 -3 -10 6 0 15 5 18 10 8 12 4 12 -15 0z"/>
<path d="M1451 1874 c0 -11 3 -14 6 -6 3 7 2 16 -1 19 -3 4 -6 -2 -5 -13z"/>
<path d="M2652 1830 c0 -14 2 -19 5 -12 2 6 2 18 0 25 -3 6 -5 1 -5 -13z"/>
<path d="M1021 1784 c0 -11 3 -14 6 -6 3 7 2 16 -1 19 -3 4 -6 -2 -5 -13z"/>
<path d="M2667 1793 c-4 -3 -7 -11 -7 -17 0 -6 5 -5 12 2 6 6 9 14 7 17 -3 3
-9 2 -12 -2z"/>
<path d="M1021 1744 c0 -11 3 -14 6 -6 3 7 2 16 -1 19 -3 4 -6 -2 -5 -13z"/>
<path d="M2080 1740 c11 -11 23 -20 27 -20 3 0 -2 9 -12 20 -10 11 -22 20 -27
20 -4 0 1 -9 12 -20z"/>
<path d="M2080 1707 c12 -16 12 -20 -1 -28 -8 -5 -9 -9 -4 -9 6 0 16 4 23 8 9
6 7 13 -10 28 -20 17 -21 17 -8 1z"/>
<path d="M1012 1675 c0 -16 2 -22 5 -12 2 9 2 23 0 30 -3 6 -5 -1 -5 -18z"/>
<path d="M1600 1635 c-8 -9 -8 -15 -2 -15 12 0 26 19 19 26 -2 2 -10 -2 -17
-11z"/>
<path d="M1020 1610 c0 -11 4 -20 9 -20 5 0 7 9 4 20 -3 11 -7 20 -9 20 -2 0
-4 -9 -4 -20z"/>
<path d="M2005 1510 c-11 -17 5 -31 19 -17 14 12 12 27 -4 27 -5 0 -12 -4 -15
-10z"/>
<path d="M641 1454 c0 -11 3 -14 6 -6 3 7 2 16 -1 19 -3 4 -6 -2 -5 -13z"/>
<path d="M2226 1453 c-6 -14 -5 -15 5 -6 7 7 10 15 7 18 -3 3 -9 -2 -12 -12z"/>
<path d="M1848 1453 c7 -3 16 -2 19 1 4 3 -2 6 -13 5 -11 0 -14 -3 -6 -6z"/>
<path d="M1800 1439 c0 -5 5 -7 10 -4 6 3 10 8 10 11 0 2 -4 4 -10 4 -5 0 -10
-5 -10 -11z"/>
<path d="M3024 1436 c-3 -8 -4 -23 -2 -33 3 -11 6 -6 9 15 6 34 2 42 -7 18z"/>
<path d="M1606 1403 c-6 -14 -5 -15 5 -6 7 7 10 15 7 18 -3 3 -9 -2 -12 -12z"/>
<path d="M2991 1394 c0 -11 3 -14 6 -6 3 7 2 16 -1 19 -3 4 -6 -2 -5 -13z"/>
<path d="M1512 1334 c-7 -8 -8 -14 -3 -14 10 0 25 19 20 25 -2 1 -10 -3 -17
-11z"/>
<path d="M1250 1326 c0 -2 7 -6 15 -10 8 -3 15 -1 15 4 0 6 -7 10 -15 10 -8 0
-15 -2 -15 -4z"/>
<path d="M2025 1230 c-3 -5 -1 -10 4 -10 6 0 11 5 11 10 0 6 -2 10 -4 10 -3 0
-8 -4 -11 -10z"/>
<path d="M2890 1230 c0 -5 7 -7 15 -4 8 4 15 8 15 10 0 2 -7 4 -15 4 -8 0 -15
-4 -15 -10z"/>
<path d="M2898 1203 c7 -3 16 -2 19 1 4 3 -2 6 -13 5 -11 0 -14 -3 -6 -6z"/>
<path d="M2775 1120 c-3 -5 -1 -10 4 -10 6 0 11 5 11 10 0 6 -2 10 -4 10 -3 0
-8 -4 -11 -10z"/>
<path d="M2780 1070 c-13 -8 -12 -10 3 -10 9 0 17 5 17 10 0 12 -1 12 -20 0z"/>
<path d="M1770 1060 c-9 -6 -10 -10 -3 -10 6 0 15 5 18 10 8 12 4 12 -15 0z"/>
<path d="M1050 1010 c0 -5 5 -10 10 -10 6 0 10 5 10 10 0 6 -4 10 -10 10 -5 0
-10 -4 -10 -10z"/>
<path d="M1040 980 c0 -5 5 -10 11 -10 5 0 7 5 4 10 -3 6 -8 10 -11 10 -2 0
-4 -4 -4 -10z"/>
<path d="M1277 789 c7 -7 15 -10 18 -7 3 3 -2 9 -12 12 -14 6 -15 5 -6 -5z"/>
<path d="M870 780 c8 -5 24 -10 34 -10 26 0 18 6 -19 14 -22 5 -26 4 -15 -4z"/>
<path d="M838 763 c6 -2 18 -2 25 0 6 3 1 5 -13 5 -14 0 -19 -2 -12 -5z"/>
<path d="M1270 765 c0 -7 -15 -9 -36 -7 -24 3 -34 1 -30 -6 3 -6 -1 -8 -12 -5
-10 2 -24 -2 -31 -11 -7 -8 -18 -13 -26 -10 -7 3 -16 0 -21 -7 -5 -8 -3 -10 6
-4 9 6 11 4 6 -4 -5 -7 -14 -10 -21 -7 -16 6 -39 -19 -31 -33 9 -14 -5 -42
-17 -34 -7 4 -8 -6 -4 -31 4 -27 1 -46 -11 -65 -15 -23 -15 -25 0 -13 13 10
16 10 15 0 -1 -24 36 -98 50 -98 7 0 13 -4 13 -10 0 -17 71 -40 129 -41 46 -1
68 4 115 30 32 17 62 29 66 26 4 -2 7 8 6 23 0 18 4 26 13 24 10 -2 12 4 7 24
-6 23 -5 26 7 15 12 -9 16 -9 20 1 3 7 6 0 6 -15 1 -19 5 -26 13 -21 7 5 8 3
3 -5 -4 -7 3 -23 16 -38 13 -15 19 -23 13 -20 -6 3 -11 0 -11 -8 0 -18 9 -19
25 -3 9 9 12 9 12 -1 0 -7 4 -9 10 -6 5 3 20 -1 32 -9 26 -19 105 -21 145 -4
15 6 32 10 36 9 5 -1 6 3 3 8 -3 5 9 16 27 25 17 8 26 16 20 16 -7 0 -13 5
-13 11 0 5 4 8 9 5 5 -4 6 5 2 21 -4 15 -14 29 -22 31 -11 4 -12 2 -1 -9 19
-20 14 -34 -6 -16 -20 19 -116 22 -105 4 4 -7 0 -8 -13 -2 -10 4 -29 7 -41 7
-12 -1 -25 3 -29 9 -4 8 1 9 16 4 15 -5 20 -4 16 4 -4 6 -15 11 -25 11 -16 0
-19 17 -12 77 0 6 17 17 36 23 29 10 44 9 82 -4 42 -14 48 -14 64 -1 9 9 29
18 44 21 25 4 27 3 15 -12 -16 -18 -22 -114 -8 -114 5 0 6 -10 3 -21 -5 -13
-3 -19 3 -15 5 3 13 -1 16 -10 4 -9 2 -13 -5 -8 -7 4 -10 1 -7 -7 3 -8 14 -12
24 -10 18 3 18 2 0 -18 -11 -12 -22 -18 -25 -13 -8 11 -44 9 -48 -3 -2 -6 15
-10 41 -10 31 0 42 4 39 13 -3 6 -1 12 5 12 5 0 12 -6 15 -14 12 -30 175 -48
220 -25 12 7 28 12 37 13 30 2 61 32 53 52 -5 16 -4 17 8 7 12 -10 14 3 16 88
1 55 -2 97 -6 95 -10 -7 -33 42 -26 54 3 5 0 12 -6 16 -8 4 -9 3 -5 -4 4 -7 1
-12 -9 -12 -8 0 -18 6 -21 14 -3 7 -23 19 -45 26 -21 7 -39 16 -39 19 0 3 -20
6 -44 6 -25 0 -42 -4 -39 -9 3 -5 -5 -7 -20 -4 -19 4 -24 1 -20 -9 4 -11 -1
-14 -18 -11 -16 2 -23 -2 -21 -10 1 -8 -2 -11 -7 -8 -5 3 -20 -7 -34 -23 -19
-23 -27 -27 -37 -18 -10 9 -12 8 -7 -5 4 -12 2 -15 -8 -11 -8 3 -12 9 -9 14 3
6 0 18 -8 27 -12 15 -11 16 5 3 14 -11 17 -11 17 0 0 8 6 5 15 -7 15 -19 15
-19 9 1 -5 17 -4 18 6 5 10 -13 11 -13 7 0 -2 10 -16 15 -38 14 -19 0 -41 7
-49 16 -8 9 -24 14 -35 12 -17 -2 -17 -1 -5 8 12 8 9 10 -15 10 -16 -1 -43 1
-60 4 -27 5 -28 5 -5 -3 23 -8 22 -9 -13 -10 -21 -1 -52 -9 -70 -18 -18 -9
-36 -16 -40 -15 -12 3 -43 -71 -46 -109 0 -11 -5 -17 -11 -14 -5 3 -10 0 -11
-7 0 -7 -6 6 -14 30 -7 24 -25 54 -38 66 -14 13 -23 27 -19 30 3 4 -2 4 -12 0
-14 -5 -17 -4 -12 4 4 7 1 12 -9 12 -9 0 -14 3 -12 8 3 4 -11 8 -31 9 -19 1
-39 8 -43 15 -5 7 -9 8 -9 3z m76 -59 c66 -31 88 -73 82 -159 -4 -55 -8 -63
-42 -93 -45 -38 -112 -56 -173 -45 -85 16 -133 72 -133 154 0 77 35 127 107
153 56 19 102 17 159 -10z m384 14 c20 -5 45 -16 55 -24 20 -15 20 -15 0 -35
-19 -19 -23 -19 -61 -6 -82 28 -149 -13 -149 -92 0 -37 5 -49 28 -69 33 -28
110 -33 143 -10 17 13 21 12 37 -1 26 -24 21 -38 -22 -58 -55 -25 -146 -17
-195 16 -75 50 -79 178 -8 243 23 20 86 45 117 46 11 0 36 -5 55 -10z m401
-14 c56 -26 82 -69 83 -137 1 -65 -17 -98 -74 -136 -46 -32 -157 -33 -208 -1
-39 24 -71 86 -72 136 0 39 23 92 50 117 50 45 150 55 221 21z m-600 -23 c-12
-20 -14 -14 -5 12 4 9 9 14 11 11 3 -2 0 -13 -6 -23z m-439 -5 c-7 -7 -12 -8
-12 -2 0 14 12 26 19 19 2 -3 -1 -11 -7 -17z m384 -135 c-10 -10 -19 5 -10 18
6 11 8 11 12 0 2 -7 1 -15 -2 -18z m-55 -96 c-10 -9 -11 -8 -5 6 3 10 9 15 12
12 3 -3 0 -11 -7 -18z m769 -22 c-7 -8 -17 -15 -23 -15 -5 0 -2 9 8 20 21 23
35 19 15 -5z"/>
<path d="M1214 660 c-48 -15 -67 -42 -66 -97 2 -66 32 -93 106 -93 62 0 92 19
104 65 24 88 -51 153 -144 125z m76 -41 c-7 -11 -9 -23 -7 -26 3 -2 11 5 17
17 9 17 14 19 26 9 8 -6 14 -17 14 -23 0 -6 -7 -2 -15 8 -16 21 -15 22 -19
-26 -1 -7 -8 -18 -16 -25 -12 -10 -13 -14 -2 -25 11 -11 12 -10 7 5 -9 23 -2
22 20 -3 18 -20 18 -21 0 -14 -14 6 -16 4 -10 -6 6 -9 4 -11 -5 -5 -7 4 -15 3
-19 -3 -4 -7 -21 -9 -44 -5 -34 5 -43 16 -38 46 0 4 -4 6 -10 5 -6 -2 -13 5
-14 15 -2 9 1 14 7 11 6 -4 8 1 4 13 -9 27 11 41 64 46 25 2 46 4 48 5 1 1 -2
-7 -8 -19z m54 -71 c-10 -15 -27 -3 -31 22 -3 23 -3 23 17 5 11 -10 17 -22 14
-27z"/>
<path d="M2000 660 c-46 -11 -70 -42 -70 -94 1 -64 26 -89 96 -94 49 -3 64 0
86 17 66 52 34 157 -52 174 -14 2 -41 1 -60 -3z m88 -41 c2 -5 9 -6 15 -2 6 4
8 0 4 -10 -3 -10 -2 -17 3 -17 6 0 10 -5 10 -11 0 -6 -6 -9 -14 -6 -8 3 -17
-1 -20 -9 -3 -9 -1 -12 4 -9 6 3 10 2 10 -4 0 -5 3 -18 7 -28 6 -16 5 -16 -10
-4 -15 12 -17 12 -11 -3 5 -13 -2 -16 -43 -16 -27 0 -57 6 -67 13 -16 12 -16
15 -4 28 9 8 14 27 12 42 -2 17 1 25 8 21 7 -4 6 0 -1 13 -10 19 -7 20 42 16
29 -2 54 -8 55 -14z m-117 -13 c-9 -11 -9 -15 1 -18 10 -4 9 -9 -3 -21 -15
-15 -16 -14 -14 16 3 39 3 37 16 37 8 0 8 -4 0 -14z"/>
<path d="M2166 513 c-6 -14 -5 -15 5 -6 7 7 10 15 7 18 -3 3 -9 -2 -12 -12z"/>
<path d="M1298 763 c6 -2 18 -2 25 0 6 3 1 5 -13 5 -14 0 -19 -2 -12 -5z"/>
<path d="M890 753 c-14 -2 -50 -11 -80 -20 -30 -10 -58 -16 -62 -15 -10 3 -30
-37 -24 -47 3 -4 -1 -17 -9 -27 -18 -24 -19 -120 -2 -154 7 -14 12 -40 11 -58
0 -18 3 -35 9 -39 6 -3 7 -1 3 5 -8 14 56 11 66 -3 7 -10 146 -16 179 -8 10 3
16 10 12 16 -3 6 -1 7 5 3 11 -7 54 28 45 37 -5 5 -10 29 -13 57 -1 11 -3 12
-7 2 -4 -10 -8 -10 -19 -2 -9 9 -27 9 -59 2 -47 -10 -85 -6 -85 9 0 5 -8 6
-17 3 -15 -5 -16 -4 -3 5 13 10 8 15 -12 12 -16 -2 -7 18 10 22 16 4 16 5 0 6
-26 2 -22 34 7 59 15 13 25 17 25 9 0 -9 2 -9 8 1 7 10 20 10 61 1 44 -9 55
-8 77 6 20 13 25 23 22 46 -3 16 0 31 6 33 6 2 2 5 -9 5 -11 1 -35 10 -53 21
-32 20 -42 21 -92 13z m60 -33 c20 -5 45 -16 55 -24 20 -15 20 -15 -2 -38 -18
-17 -25 -20 -35 -10 -15 15 -99 16 -131 1 -54 -24 -63 -105 -18 -150 32 -32
84 -39 137 -19 21 8 31 7 45 -6 11 -10 19 -20 19 -24 0 -16 -71 -40 -122 -41
-83 -2 -142 37 -168 112 -27 75 21 164 105 194 48 17 69 18 115 5z m-204 -278
c-3 -3 -1 -11 6 -19 8 -11 7 -12 -5 -7 -9 3 -15 14 -14 24 1 10 5 16 10 13 4
-3 6 -8 3 -11z"/>
<path d="M756 527 c3 -10 9 -15 12 -12 3 3 0 11 -7 18 -10 9 -11 8 -5 -6z"/>
<path d="M2552 734 c-12 -8 -22 -21 -22 -27 0 -7 4 -6 11 3 9 13 10 13 6 0 -2
-8 -10 -14 -17 -12 -8 2 -10 -3 -6 -13 4 -11 2 -14 -6 -9 -8 5 -9 0 -5 -15 3
-13 3 -20 -1 -17 -3 4 -16 -19 -28 -51 -13 -32 -23 -53 -23 -47 -1 6 -7 11
-15 11 -8 0 -12 -6 -9 -14 3 -7 9 -13 15 -13 5 0 6 -5 2 -12 -5 -7 -12 -5 -22
8 -15 20 -15 16 5 -33 4 -10 3 -14 -5 -9 -6 3 -14 1 -18 -5 -5 -8 -3 -9 6 -4
8 5 11 3 8 -6 -3 -8 -10 -13 -15 -12 -5 1 -9 -7 -9 -18 0 -10 4 -19 9 -19 4 0
6 -4 3 -9 -7 -11 38 -31 70 -31 13 0 27 7 31 16 3 8 12 13 20 10 11 -5 11 -2
2 16 -10 18 -9 20 4 15 10 -4 14 -1 11 6 -4 10 54 14 117 8 3 -1 13 -17 22
-36 14 -30 22 -35 50 -35 46 0 67 19 72 63 2 30 0 36 -10 27 -9 -8 -13 -7 -12
2 1 35 -4 49 -15 42 -8 -5 -9 0 -6 14 4 12 2 20 -3 16 -5 -3 -9 4 -9 15 0 11
-5 23 -10 26 -6 3 -19 26 -30 51 -16 34 -18 49 -10 67 8 18 8 19 -1 6 -11 -15
-15 -13 -37 12 -28 34 -82 40 -120 13z m163 -149 c86 -181 84 -175 42 -175
-30 0 -36 5 -51 38 l-17 37 -76 -2 -77 -1 -18 -36 c-16 -31 -23 -36 -54 -36
-20 0 -34 4 -32 9 2 4 35 74 73 155 l70 146 38 0 37 0 65 -135z"/>
<path d="M2590 612 c-12 -28 -23 -54 -24 -58 0 -4 20 -7 47 -8 26 0 47 -1 47
0 0 0 -11 27 -24 59 l-24 59 -22 -52z m21 -35 c-10 -9 -11 -8 -5 6 3 10 9 15
12 12 3 -3 0 -11 -7 -18z"/>
<path d="M2863 738 c-29 -14 -33 -35 -27 -165 2 -69 0 -114 -6 -118 -5 -3 -10
-11 -10 -17 0 -7 6 -6 15 2 9 8 15 9 15 2 0 -6 -4 -14 -10 -17 -5 -3 -10 -11
-10 -16 0 -6 4 -8 9 -5 5 3 14 -1 21 -9 16 -20 69 -19 76 0 4 8 10 12 15 9 5
-3 8 64 7 158 -2 134 -5 165 -17 175 -19 15 -48 15 -78 1z m67 -176 l0 -159
-30 5 -30 4 0 154 0 154 30 0 30 0 0 -158z"/>
<path d="M1416 711 c-3 -5 0 -11 7 -14 8 -3 14 1 14 9 0 16 -13 19 -21 5z"/>
<path d="M2505 709 c-4 -6 -5 -12 -2 -15 2 -3 7 2 10 11 7 17 1 20 -8 4z"/>
<path d="M2217 697 c-3 -8 -2 -20 3 -26 5 -9 8 -4 8 13 0 29 -3 32 -11 13z"/>
<path d="M863 549 c-2 -23 3 -25 10 -4 4 8 3 16 -1 19 -4 3 -9 -4 -9 -15z"/>
<path d="M1767 559 c7 -7 15 -10 18 -7 3 3 -2 9 -12 12 -14 6 -15 5 -6 -5z"/>
<path d="M1635 550 c3 -5 8 -10 11 -10 2 0 4 5 4 10 0 6 -5 10 -11 10 -5 0 -7
-4 -4 -10z"/>
<path d="M1706 542 c-3 -5 1 -13 10 -16 25 -10 54 -7 54 5 0 6 -9 8 -21 4 -13
-4 -25 -2 -29 5 -5 8 -10 8 -14 2z"/>
<path d="M1665 530 c3 -5 11 -10 16 -10 6 0 7 5 4 10 -3 6 -11 10 -16 10 -6 0
-7 -4 -4 -10z"/>
<path d="M950 520 c0 -5 7 -7 15 -4 8 4 15 8 15 10 0 2 -7 4 -15 4 -8 0 -15
-4 -15 -10z"/>
<path d="M1044 487 c0 -15 6 -23 14 -20 10 4 10 9 0 22 -7 9 -13 17 -14 19 -1
2 -1 -8 0 -21z"/>
<path d="M2646 433 c-4 -9 -3 -20 1 -24 4 -4 9 3 9 17 2 28 -1 31 -10 7z"/>
<path d="M2671 414 c0 -11 3 -14 6 -6 3 7 2 16 -1 19 -3 4 -6 -2 -5 -13z"/>
<path d="M1380 410 c-9 -6 -10 -10 -3 -10 6 0 15 5 18 10 8 12 4 12 -15 0z"/>
</g>
</svg>
